# Blender v2.77 (sub 0) OBJ File: 'Crystal_002.blend'
# www.blender.org
mtllib Crystal_002.mtl
o Crystal_002_Circle.001
v 0.000000 0.000000 -0.453600
v -0.392829 0.000000 -0.226800
v -0.392829 0.000000 0.226800
v 0.000000 0.000000 0.453600
v 0.392829 0.000000 0.226800
v 0.392829 0.000000 -0.226800
v 0.000000 4.000000 -0.640000
v -0.554256 4.000000 -0.320000
v -0.554256 4.000000 0.320000
v 0.000000 4.000000 0.640000
v 0.554256 4.000000 0.320000
v 0.554256 4.000000 -0.320000
v 0.000000 5.000000 0.000000
vn 0.4996 -0.0403 0.8653
vn -0.9992 -0.0403 0.0000
vn 0.9992 -0.0403 0.0000
vn -0.4996 -0.0403 0.8653
vn -0.4996 -0.0403 -0.8653
vn 0.4996 -0.0403 -0.8653
vn 0.8746 0.4848 0.0000
vn -0.4373 0.4848 0.7575
vn -0.4373 0.4848 -0.7575
vn 0.4373 0.4848 -0.7575
vn 0.4373 0.4848 0.7575
vn -0.8746 0.4848 0.0000
vn 0.0000 -1.0000 0.0000
usemtl Crystal002Mat
s off
f 11//1 4//1 5//1
f 9//2 2//2 3//2
f 12//3 5//3 6//3
f 10//4 3//4 4//4
f 8//5 1//5 2//5
f 7//6 6//6 1//6
f 12//7 13//7 11//7
f 10//8 13//8 9//8
f 8//9 13//9 7//9
f 7//10 13//10 12//10
f 11//11 13//11 10//11
f 9//12 13//12 8//12
f 6//13 5//13 3//13
f 11//1 10//1 4//1
f 9//2 8//2 2//2
f 12//3 11//3 5//3
f 10//4 9//4 3//4
f 8//5 7//5 1//5
f 7//6 12//6 6//6
f 3//13 2//13 1//13
f 1//13 6//13 3//13
f 5//13 4//13 3//13
