# Blender v2.77 (sub 0) OBJ File: 'Crystal_006.blend'
# www.blender.org
mtllib Crystal_006.mtl
o Crystal_006_Circle.002
v -0.006254 -2.518277 -1.010856
v -0.872279 -2.518277 -0.510856
v -0.872279 -2.518277 0.489144
v -0.006254 -2.518277 0.989144
v 0.859771 -2.518277 0.489144
v 0.859771 -2.518277 -0.510856
v -0.006254 2.256940 -1.010856
v -0.872279 2.256940 -0.510856
v -0.816095 2.284402 0.511270
v 0.120804 2.256940 0.915787
v 0.732714 2.256940 0.562500
v 0.859771 2.256940 -0.510856
v -0.245861 3.053312 -0.238325
v -0.051797 3.206692 -0.328723
v -0.257703 3.246396 0.074839
v 0.020660 3.254657 0.342693
v 0.130452 3.372535 0.170691
v 0.126720 3.210401 -0.182720
v -0.205336 -3.040803 -0.163819
v 0.055663 -3.077120 -0.338412
v -0.128718 -3.116318 0.212126
v 0.097685 -2.970842 0.665658
v 0.158639 -3.184116 0.160889
v 0.362807 -3.095781 0.014312
v -0.872279 0.140506 -0.510856
v -0.857734 0.165805 0.418709
v 0.757946 -0.024316 0.477373
v 0.859771 -0.119057 -0.510856
v 0.060770 0.313029 0.950448
v -0.006254 0.010725 -1.010856
v -0.947044 0.327882 -0.028610
v 0.899622 -0.086952 0.038423
v -0.336055 0.060148 0.719514
v -0.470769 0.020746 -0.828695
v 0.394239 -0.012363 -0.752323
v 0.473439 -0.114613 0.756669
vn -0.9828 -0.0556 0.1761
vn 0.9974 0.0000 -0.0724
vn -0.5142 0.0239 0.8574
vn -0.6207 0.0000 -0.7841
vn 0.5424 0.0000 -0.8402
vn 0.6950 0.0318 0.7183
vn 0.8600 0.5000 0.1018
vn -0.6325 -0.7741 -0.0266
vn -0.2516 0.9422 -0.2211
vn -0.3204 0.5393 0.7788
vn -0.4291 0.5132 -0.7433
vn 0.4130 0.5637 -0.7153
vn 0.4385 0.4803 0.7596
vn -0.7902 0.6123 0.0270
vn -0.2526 -0.9554 -0.1526
vn 0.7580 -0.6523 0.0000
vn -0.6849 -0.5212 0.5091
vn -0.4035 -0.8045 -0.4359
vn 0.3559 -0.7023 -0.6165
vn 0.5357 -0.7527 0.3827
vn -0.9882 0.0000 -0.1532
vn 0.9526 0.0403 0.3017
vn -0.4955 0.0255 0.8682
vn -0.3651 0.0000 -0.9310
vn 0.4604 0.0000 -0.8877
vn 0.4270 0.0023 0.9043
vn 0.7023 0.6442 -0.3030
vn -0.6167 -0.7872 0.0000
vn -0.6756 0.6159 -0.4053
vn -0.3671 0.8598 0.3550
vn 0.3086 0.8633 -0.3993
vn -0.6612 0.3226 0.6772
vn -0.6757 0.6503 -0.3472
vn 0.5388 0.5083 -0.6718
vn 0.5146 0.5178 0.6834
vn -0.8807 0.3876 -0.2723
vn -0.2315 -0.9618 -0.1460
vn 0.2286 -0.9412 -0.2488
vn -0.1505 -0.9170 0.3693
vn 0.5643 -0.7568 0.3299
vn -0.3495 -0.7150 0.6054
vn -0.3368 -0.7392 -0.5833
vn 0.4499 -0.7810 -0.4331
vn 0.4465 -0.4502 0.7733
vn -0.4997 0.0333 -0.8655
vn -0.5175 0.0312 0.8551
vn 0.4456 0.0245 0.8949
vn 0.5000 -0.0104 -0.8660
vn 0.7034 -0.0187 0.7105
vn 0.9921 0.0444 0.1174
vn -0.9799 0.0105 0.1995
vn -0.3964 0.0004 0.9181
vn -0.9972 0.0520 0.0534
vn -1.0000 0.0054 0.0000
vn 0.9999 -0.0164 0.0000
vn -0.4998 0.0266 0.8657
vn -0.4998 -0.0293 -0.8657
vn 0.5000 0.0094 -0.8660
vn 0.4999 -0.0160 0.8659
vn 0.5000 -0.0000 0.8660
vn 0.9516 -0.0009 0.3073
vn -0.5035 -0.0278 0.8635
usemtl Crystal006Mat
s off
f 2//1 26//1 31//1
f 32//2 6//2 28//2
f 33//3 4//3 29//3
f 34//4 2//4 25//4
f 35//5 1//5 30//5
f 36//6 5//6 27//6
f 12//7 17//7 11//7
f 3//8 19//8 21//8
f 15//9 17//9 14//9
f 10//10 15//10 9//10
f 8//11 14//11 7//11
f 7//12 18//12 12//12
f 11//13 16//13 10//13
f 9//14 13//14 8//14
f 20//15 23//15 21//15
f 5//16 24//16 6//16
f 4//17 21//17 22//17
f 2//18 20//18 19//18
f 6//19 20//19 1//19
f 5//20 22//20 23//20
f 31//21 25//21 2//21
f 32//22 27//22 5//22
f 33//23 26//23 3//23
f 34//24 30//24 1//24
f 35//25 28//25 6//25
f 36//26 29//26 4//26
f 12//27 18//27 17//27
f 3//28 2//28 19//28
f 14//29 13//29 15//29
f 15//30 16//30 17//30
f 17//31 18//31 14//31
f 10//32 16//32 15//32
f 8//33 13//33 14//33
f 7//34 14//34 18//34
f 11//35 17//35 16//35
f 9//36 15//36 13//36
f 21//37 19//37 20//37
f 20//38 24//38 23//38
f 23//39 22//39 21//39
f 5//40 23//40 24//40
f 4//41 3//41 21//41
f 2//42 1//42 20//42
f 6//43 24//43 20//43
f 5//44 4//44 22//44
f 7//5 35//5 30//5
f 7//45 34//45 8//45
f 10//46 33//46 29//46
f 11//47 29//47 36//47
f 12//2 32//2 28//2
f 12//48 35//48 7//48
f 11//49 36//49 27//49
f 11//50 32//50 12//50
f 9//51 31//51 26//51
f 9//52 33//52 10//52
f 8//4 34//4 25//4
f 8//53 31//53 9//53
f 2//54 3//54 26//54
f 32//55 5//55 6//55
f 33//56 3//56 4//56
f 34//57 1//57 2//57
f 35//58 6//58 1//58
f 36//59 4//59 5//59
f 7//24 30//24 34//24
f 11//60 10//60 29//60
f 12//25 28//25 35//25
f 11//61 27//61 32//61
f 9//62 26//62 33//62
f 8//21 25//21 31//21
