# Blender v2.77 (sub 0) OBJ File: 'Crystal_007.blend'
# www.blender.org
mtllib Crystal_007.mtl
o Crystal_007_Circle.002
v 0.408377 -0.474256 -0.073399
v 0.049204 -1.328911 -0.315074
v -0.384773 -0.740359 -0.226103
v -0.474475 -0.627311 0.252342
v 0.003761 -1.067367 0.533665
v 0.352351 -0.804590 0.318526
v 0.369169 0.732407 -0.049785
v 0.112873 1.389276 -0.265408
v -0.111391 1.420158 -0.260008
v -0.213645 1.351412 0.044592
v -0.112962 1.351412 0.177845
v 0.142516 1.351412 0.176404
v -0.006194 1.720253 -0.246845
v -0.115797 2.822655 0.071266
v 0.097239 -2.909517 -0.111854
v 0.178984 0.183657 -0.393571
v -0.279942 0.122358 -0.370252
v -0.110513 0.098414 0.365290
v 0.289862 -0.150469 0.321020
v -0.336943 0.888426 0.067679
v -0.015505 0.389568 -0.413695
v 0.052726 -0.075411 0.391409
v -0.353692 0.276015 -0.102383
v 0.347727 0.141528 -0.275549
v 0.372913 -0.023473 0.106132
v -0.261869 0.291659 0.277756
vn -0.1017 -0.0608 -0.9930
vn 0.2915 0.0242 0.9563
vn -0.9852 0.0703 -0.1563
vn 0.5555 -0.0906 -0.8266
vn 0.9819 0.0355 -0.1863
vn -0.4089 0.0911 0.9080
vn 0.0056 0.0723 0.9974
vn -0.9503 0.0687 -0.3035
vn 0.9005 0.2303 -0.3688
vn 0.9006 0.1862 0.3929
vn -0.7971 0.0421 0.6023
vn -0.0172 0.0498 -0.9986
vn 0.6301 -0.2281 0.7423
vn 0.9913 -0.1272 0.0345
vn 0.0444 -0.0556 -0.9975
vn -0.0069 0.1423 0.9898
vn -0.9518 0.0656 -0.2997
vn 0.9113 0.0855 0.4028
vn -0.7204 0.1479 0.6776
vn -0.3648 -0.1296 -0.9220
vn 0.6412 0.2709 -0.7180
vn 0.9922 0.0299 0.1210
vn -0.4679 0.2018 -0.8604
vn -0.9666 -0.2216 -0.1289
vn 0.6723 -0.0743 -0.7365
vn -0.6637 -0.2771 0.6948
vn 0.8458 0.1633 -0.5078
vn -0.7943 0.1826 -0.5794
vn -0.6861 0.1632 0.7089
vn 0.3177 0.1217 0.9404
vn 0.8399 0.1136 0.5307
vn -0.3585 0.1374 0.9233
vn 0.0056 0.1487 0.9889
vn -0.2748 0.1168 -0.9544
vn -0.9460 0.1616 -0.2811
vn 0.5887 0.1173 -0.7998
vn -0.0036 0.1472 -0.9891
vn -0.3452 -0.1137 -0.9316
vn 0.4649 0.1032 0.8793
vn -0.9791 0.0538 -0.1963
vn 0.7552 -0.1361 -0.6412
vn 0.9878 0.0161 0.1548
vn -0.4501 0.0795 0.8895
vn -0.7754 0.2357 0.5859
vn 0.8971 0.1287 0.4228
vn -0.0007 0.1479 0.9890
vn -0.9280 0.1495 -0.3413
vn 0.2220 0.1151 -0.9682
usemtl Crystal007Mat
s off
f 2//1 17//1 21//1
f 22//2 6//2 19//2
f 23//3 4//3 20//3
f 24//4 2//4 16//4
f 7//5 1//5 24//5
f 26//6 5//6 18//6
f 12//7 14//7 11//7
f 10//8 14//8 9//8
f 8//9 14//9 7//9
f 7//10 14//10 12//10
f 11//11 14//11 10//11
f 9//12 13//12 8//12
f 5//13 15//13 6//13
f 6//14 15//14 1//14
f 21//15 16//15 2//15
f 22//16 18//16 5//16
f 23//17 17//17 3//17
f 25//18 19//18 6//18
f 26//19 20//19 4//19
f 3//20 2//20 15//20
f 8//21 13//21 14//21
f 7//22 25//22 1//22
f 9//23 14//23 13//23
f 4//24 3//24 15//24
f 2//25 1//25 15//25
f 5//26 4//26 15//26
f 7//27 24//27 8//27
f 10//28 23//28 20//28
f 11//29 20//29 26//29
f 12//30 22//30 19//30
f 12//31 25//31 7//31
f 11//32 26//32 18//32
f 11//33 22//33 12//33
f 9//34 21//34 17//34
f 9//35 23//35 10//35
f 8//36 24//36 16//36
f 8//37 21//37 9//37
f 2//38 3//38 17//38
f 22//39 5//39 6//39
f 23//40 3//40 4//40
f 24//41 1//41 2//41
f 25//42 6//42 1//42
f 26//43 4//43 5//43
f 11//44 10//44 20//44
f 12//45 19//45 25//45
f 11//46 18//46 22//46
f 9//47 17//47 23//47
f 8//48 16//48 21//48
