# Blender v2.77 (sub 0) OBJ File: 'Diamond_002.blend'
# www.blender.org
mtllib Diamond_002.mtl
o Diamond_002_Diamond.003
v 0.000000 0.219444 0.000000
v 0.000000 -0.930556 0.000000
v 0.600000 0.219444 0.000000
v 1.000000 -0.130556 0.000000
v 0.424264 0.219444 0.424264
v 0.707107 -0.130556 0.707107
v 0.000000 0.219444 0.600000
v 0.000000 -0.130556 1.000000
v -0.424264 0.219444 0.424264
v -0.707107 -0.130556 0.707107
v -0.600000 0.219444 0.000000
v -1.000000 -0.130556 0.000000
v -0.424264 0.219444 -0.424264
v -0.707107 -0.130556 -0.707107
v 0.000000 0.219444 -0.600000
v 0.000000 -0.130556 -1.000000
v 0.424264 0.219444 -0.424264
v 0.707106 -0.130556 -0.707107
vn 0.6048 -0.7560 -0.2505
vn 0.6048 -0.7560 0.2505
vn 0.2505 -0.7560 0.6048
vn -0.2505 -0.7560 0.6048
vn -0.6048 -0.7560 0.2505
vn -0.6048 -0.7560 -0.2505
vn -0.2505 -0.7560 -0.6048
vn 0.2505 -0.7560 -0.6048
vn 0.6353 0.7261 -0.2631
vn 0.6353 0.7261 0.2631
vn 0.2631 0.7261 0.6353
vn -0.2631 0.7261 0.6353
vn -0.6353 0.7261 0.2631
vn -0.6353 0.7261 -0.2631
vn -0.2631 0.7261 -0.6353
vn 0.2631 0.7261 -0.6353
vn 0.0000 1.0000 -0.0000
usemtl Diamond002Mat
s off
f 4//1 2//1 18//1
f 2//2 4//2 6//2
f 2//3 6//3 8//3
f 2//4 8//4 10//4
f 2//5 10//5 12//5
f 2//6 12//6 14//6
f 2//7 14//7 16//7
f 2//8 16//8 18//8
f 3//9 4//9 18//9 17//9
f 4//10 3//10 5//10 6//10
f 6//11 5//11 7//11 8//11
f 8//12 7//12 9//12 10//12
f 10//13 9//13 11//13 12//13
f 12//14 11//14 13//14 14//14
f 14//15 13//15 15//15 16//15
f 16//16 15//16 17//16 18//16
f 1//17 3//17 17//17
f 3//17 1//17 5//17
f 5//17 1//17 7//17
f 7//17 1//17 9//17
f 9//17 1//17 11//17
f 11//17 1//17 13//17
f 13//17 1//17 15//17
f 15//17 1//17 17//17
