# Blender v2.77 (sub 0) OBJ File: 'Diamond_001.blend'
# www.blender.org
mtllib Diamond_001.mtl
o Diamond_001_Diamond.002
v 0.000000 0.232143 0.000000
v 0.000000 -0.917857 0.000000
v 0.600000 0.232143 0.000000
v 1.000000 -0.117857 0.000000
v 0.300000 0.232143 0.519615
v 0.500000 -0.117857 0.866025
v -0.300000 0.232143 0.519615
v -0.500000 -0.117857 0.866026
v -0.600000 0.232143 0.000000
v -1.000000 -0.117857 0.000000
v -0.300000 0.232143 -0.519615
v -0.500000 -0.117857 -0.866026
v 0.300000 0.232143 -0.519615
v 0.500000 -0.117857 -0.866025
vn 0.5876 -0.7346 -0.3393
vn 0.5876 -0.7346 0.3393
vn 0.0000 -0.7346 0.6786
vn -0.5876 -0.7346 0.3393
vn -0.5876 -0.7346 -0.3393
vn 0.0000 -0.7346 -0.6786
vn 0.6155 0.7035 -0.3554
vn 0.6155 0.7035 0.3554
vn 0.0000 0.7035 0.7107
vn -0.6155 0.7035 0.3554
vn -0.6155 0.7035 -0.3554
vn 0.0000 0.7035 -0.7107
vn 0.0000 1.0000 0.0000
usemtl Diamond001Mat
s off
f 4//1 2//1 14//1
f 2//2 4//2 6//2
f 2//3 6//3 8//3
f 2//4 8//4 10//4
f 2//5 10//5 12//5
f 2//6 12//6 14//6
f 3//7 4//7 14//7 13//7
f 4//8 3//8 5//8 6//8
f 6//9 5//9 7//9 8//9
f 8//10 7//10 9//10 10//10
f 10//11 9//11 11//11 12//11
f 12//12 11//12 13//12 14//12
f 1//13 3//13 13//13
f 3//13 1//13 5//13
f 5//13 1//13 7//13
f 7//13 1//13 9//13
f 9//13 1//13 11//13
f 11//13 1//13 13//13
