# Blender v2.77 (sub 0) OBJ File: 'Dipyramid_002.blend'
# www.blender.org
mtllib Dipyramid_002.mtl
o Dipyramid_002_Plane
v 0.000000 1.100000 0.000000
v -0.989949 0.100000 -0.000000
v -0.000000 0.100000 0.989949
v 0.000000 0.100000 -0.989949
v 0.989949 0.100000 0.000000
v -0.000000 0.100000 0.989949
v -0.989949 0.100000 -0.000000
v 0.989949 0.100000 0.000000
v 0.000000 0.100000 -0.989949
v 0.000000 -1.900000 0.000000
vn 0.5793 0.5735 0.5793
vn -0.5793 0.5735 -0.5793
vn 0.5793 0.5735 -0.5793
vn -0.5793 0.5735 0.5793
vn 0.6674 -0.3304 0.6674
vn -0.6674 -0.3304 -0.6674
vn 0.6674 -0.3304 -0.6674
vn -0.6674 -0.3304 0.6674
usemtl Dipyramid002Mat
s off
f 3//1 5//1 1//1
f 4//2 2//2 1//2
f 5//3 4//3 1//3
f 2//4 3//4 1//4
f 7//2 1//2 9//2
f 8//1 1//1 6//1
f 9//3 1//3 8//3
f 6//4 1//4 7//4
f 3//5 10//5 5//5
f 4//6 10//6 2//6
f 5//7 10//7 4//7
f 2//8 10//8 3//8
f 7//6 9//6 10//6
f 8//5 6//5 10//5
f 9//7 8//7 10//7
f 6//8 7//8 10//8
