# Blender v2.77 (sub 0) OBJ File: 'Gem_001.blend'
# www.blender.org
mtllib Gem_001.mtl
o Gem_001_Gem.002
v 0.000000 -0.754412 0.000000
v 0.000000 0.295588 0.000000
v 0.000000 -0.379412 -0.476253
v 0.336761 -0.004412 -0.813014
v 0.000000 0.145588 -0.800970
v 0.229610 0.295588 -0.554328
v 0.336761 -0.379412 -0.336761
v 0.813014 -0.004412 -0.336761
v 0.566372 0.145588 -0.566372
v 0.554328 0.295588 -0.229610
v 0.476253 -0.379412 -0.000000
v 0.813014 -0.004412 0.336761
v 0.800970 0.145588 -0.000000
v 0.554328 0.295588 0.229610
v 0.336761 -0.379412 0.336761
v 0.336761 -0.004412 0.813014
v 0.566372 0.145588 0.566372
v 0.229610 0.295588 0.554328
v 0.000000 -0.379412 0.476253
v -0.336761 -0.004412 0.813014
v 0.000000 0.145588 0.800970
v -0.229610 0.295588 0.554328
v -0.336761 -0.379412 0.336761
v -0.813014 -0.004412 0.336761
v -0.566372 0.145588 0.566372
v -0.554328 0.295588 0.229610
v -0.476253 -0.379412 0.000000
v -0.813014 -0.004412 -0.336761
v -0.800970 0.145588 0.000000
v -0.554328 0.295588 -0.229610
v -0.336761 -0.379412 -0.336761
v -0.336761 -0.004412 -0.813014
v -0.566372 0.145588 -0.566372
v -0.229610 0.295588 -0.554328
vn 0.2482 -0.7611 -0.5993
vn 0.5261 -0.6682 -0.5261
vn 0.7048 0.0800 -0.7048
vn 0.2798 0.6823 -0.6754
vn 0.3674 0.8544 -0.3674
vn 0.5993 -0.7611 -0.2482
vn 0.7440 -0.6682 0.0000
vn 0.9968 0.0800 0.0000
vn 0.6754 0.6823 -0.2798
vn 0.5196 0.8544 0.0000
vn 0.5993 -0.7611 0.2482
vn 0.5261 -0.6682 0.5261
vn 0.7048 0.0800 0.7048
vn 0.6754 0.6823 0.2798
vn 0.3674 0.8544 0.3674
vn 0.2482 -0.7611 0.5993
vn 0.0000 -0.6682 0.7440
vn 0.0000 0.0800 0.9968
vn 0.2798 0.6823 0.6754
vn 0.0000 0.8544 0.5196
vn -0.2482 -0.7611 0.5993
vn -0.5261 -0.6682 0.5261
vn -0.7048 0.0800 0.7048
vn -0.2798 0.6823 0.6754
vn -0.3674 0.8544 0.3674
vn -0.5993 -0.7611 0.2482
vn -0.7440 -0.6682 0.0000
vn -0.9968 0.0800 0.0000
vn -0.6754 0.6823 0.2798
vn -0.5196 0.8544 0.0000
vn -0.5993 -0.7611 -0.2482
vn -0.5261 -0.6682 -0.5261
vn -0.7048 0.0800 -0.7048
vn -0.6754 0.6823 -0.2798
vn -0.3674 0.8544 -0.3674
vn -0.2482 -0.7611 -0.5993
vn 0.0000 -0.6682 -0.7440
vn 0.0000 0.0800 -0.9968
vn -0.2798 0.6823 -0.6754
vn 0.0000 0.8544 -0.5196
vn 0.0000 1.0000 0.0000
usemtl Gem001Mat
s off
f 7//1 1//1 3//1 4//1
f 7//2 4//2 8//2
f 8//3 4//3 9//3
f 9//4 4//4 5//4 6//4
f 9//5 6//5 10//5
f 11//6 1//6 7//6 8//6
f 11//7 8//7 12//7
f 12//8 8//8 13//8
f 13//9 8//9 9//9 10//9
f 13//10 10//10 14//10
f 15//11 1//11 11//11 12//11
f 15//12 12//12 16//12
f 16//13 12//13 17//13
f 17//14 12//14 13//14 14//14
f 17//15 14//15 18//15
f 19//16 1//16 15//16 16//16
f 19//17 16//17 20//17
f 20//18 16//18 21//18
f 21//19 16//19 17//19 18//19
f 21//20 18//20 22//20
f 23//21 1//21 19//21 20//21
f 23//22 20//22 24//22
f 24//23 20//23 25//23
f 25//24 20//24 21//24 22//24
f 25//25 22//25 26//25
f 27//26 1//26 23//26 24//26
f 27//27 24//27 28//27
f 28//28 24//28 29//28
f 29//29 24//29 25//29 26//29
f 29//30 26//30 30//30
f 31//31 1//31 27//31 28//31
f 31//32 28//32 32//32
f 32//33 28//33 33//33
f 33//34 28//34 29//34 30//34
f 33//35 30//35 34//35
f 3//36 1//36 31//36 32//36
f 3//37 32//37 4//37
f 4//38 32//38 5//38
f 5//39 32//39 33//39 34//39
f 5//40 34//40 6//40
f 6//41 34//41 2//41
f 2//41 10//41 6//41
f 2//41 14//41 10//41
f 2//41 18//41 14//41
f 2//41 22//41 18//41
f 2//41 26//41 22//41
f 2//41 30//41 26//41
f 2//41 34//41 30//41
