# Blender v2.77 (sub 0) OBJ File: 'Hexagon_Gem_002.blend'
# www.blender.org
mtllib Hexagon_Gem_002.mtl
o Hexagon_Gem_002_Diamond.002
v 0.000000 0.000000 0.270000
v 0.467654 -0.720000 0.270000
v 0.000000 -0.990000 0.270000
v -0.467654 -0.720000 0.270000
v -0.467654 0.720000 0.270000
v 0.000000 0.990000 0.270000
v 0.467654 0.720000 0.270000
v -0.000000 0.000000 -0.270000
v 0.467654 -0.720000 -0.270000
v 0.866025 -1.000000 -0.000000
v -0.000000 -0.990000 -0.270000
v 0.000000 -1.500000 -0.000000
v -0.467654 -0.720000 -0.270000
v -0.866025 -1.000000 0.000000
v -0.467654 0.720000 -0.270000
v -0.866025 1.000000 0.000000
v 0.000000 0.990000 -0.270000
v 0.000000 1.500000 0.000000
v 0.467654 0.720000 -0.270000
v 0.866025 1.000000 -0.000000
vn 0.5610 -0.0000 0.8278
vn 0.2608 -0.4517 0.8532
vn -0.2608 -0.4517 0.8532
vn -0.5610 -0.0000 0.8278
vn -0.2608 0.4517 0.8532
vn 0.2608 0.4517 0.8532
vn 0.0000 0.0000 1.0000
vn 0.5610 0.0000 -0.8278
vn 0.2608 -0.4517 -0.8532
vn -0.2608 -0.4517 -0.8532
vn -0.5610 0.0000 -0.8278
vn -0.2608 0.4517 -0.8532
vn 0.2608 0.4517 -0.8532
vn -0.0000 0.0000 -1.0000
usemtl HexagonGem002Mat
s off
f 2//1 10//1 20//1 7//1
f 10//2 2//2 3//2 12//2
f 12//3 3//3 4//3 14//3
f 14//4 4//4 5//4 16//4
f 16//5 5//5 6//5 18//5
f 18//6 6//6 7//6 20//6
f 1//7 2//7 7//7
f 2//7 1//7 3//7
f 3//7 1//7 4//7
f 4//7 1//7 5//7
f 5//7 1//7 6//7
f 6//7 1//7 7//7
f 9//8 19//8 20//8 10//8
f 10//9 12//9 11//9 9//9
f 12//10 14//10 13//10 11//10
f 14//11 16//11 15//11 13//11
f 16//12 18//12 17//12 15//12
f 18//13 20//13 19//13 17//13
f 8//14 19//14 9//14
f 9//14 11//14 8//14
f 11//14 13//14 8//14
f 13//14 15//14 8//14
f 15//14 17//14 8//14
f 17//14 19//14 8//14
