# Blender v2.77 (sub 0) OBJ File: 'Quartz_001.blend'
# www.blender.org
mtllib Quartz_001.mtl
o Quartz_001_Circle.001
v 0.000000 3.000000 0.000000
v 0.000000 2.000000 -1.000000
v -0.866025 2.000000 -0.500000
v -0.866025 2.000000 0.500000
v 0.000000 2.000000 1.000000
v 0.866025 2.000000 0.500000
v 0.866025 2.000000 -0.500000
v 0.000000 -3.000000 0.000000
v 0.000000 -2.000000 -1.000000
v -0.866025 -2.000000 -0.500000
v -0.866025 -2.000000 0.500000
v 0.000000 -2.000000 1.000000
v 0.866025 -2.000000 0.500000
v 0.866025 -2.000000 -0.500000
vn 0.7559 0.6547 0.0000
vn -0.3780 0.6547 0.6547
vn -0.3780 0.6547 -0.6547
vn 0.3780 0.6547 -0.6547
vn 0.3780 0.6547 0.6547
vn -0.7559 0.6547 0.0000
vn -0.5000 0.0000 0.8660
vn 0.5000 0.0000 -0.8660
vn 0.5000 0.0000 0.8660
vn -1.0000 0.0000 0.0000
vn 1.0000 0.0000 0.0000
vn 0.7559 -0.6547 0.0000
vn -0.3780 -0.6547 0.6547
vn -0.3780 -0.6547 -0.6547
vn 0.3780 -0.6547 -0.6547
vn 0.3780 -0.6547 0.6547
vn -0.7559 -0.6547 0.0000
vn -0.5000 0.0000 -0.8660
usemtl Quartz001Mat
s off
f 6//1 7//1 1//1
f 4//2 5//2 1//2
f 2//3 3//3 1//3
f 7//4 2//4 1//4
f 5//5 6//5 1//5
f 3//6 4//6 1//6
f 12//7 5//7 4//7 11//7
f 9//8 2//8 7//8 14//8
f 13//9 6//9 5//9 12//9
f 11//10 4//10 3//10 10//10
f 14//11 7//11 6//11 13//11
f 13//12 8//12 14//12
f 11//13 8//13 12//13
f 9//14 8//14 10//14
f 14//15 8//15 9//15
f 12//16 8//16 13//16
f 10//17 8//17 11//17
f 10//18 3//18 2//18 9//18
