# Blender v2.77 (sub 0) OBJ File: 'Quartz_003.blend'
# www.blender.org
mtllib Quartz_003.mtl
o Quartz_003_Circle.001
v 0.000000 1.000000 0.000000
v 0.000000 0.000000 -1.000000
v -0.866025 0.000000 -0.500000
v -0.866025 0.000000 0.500000
v 0.000000 0.000000 1.000000
v 0.866025 0.000000 0.500000
v 0.866025 0.000000 -0.500000
v 0.000000 -1.000000 0.000000
vn 0.7559 0.6547 0.0000
vn -0.3780 0.6547 0.6547
vn -0.3780 0.6547 -0.6547
vn 0.3780 0.6547 -0.6547
vn 0.3780 0.6547 0.6547
vn -0.7559 0.6547 0.0000
vn 0.7559 -0.6547 0.0000
vn -0.3780 -0.6547 0.6547
vn -0.3780 -0.6547 -0.6547
vn 0.3780 -0.6547 -0.6547
vn 0.3780 -0.6547 0.6547
vn -0.7559 -0.6547 0.0000
usemtl Quartz003Mat
s off
f 6//1 7//1 1//1
f 4//2 5//2 1//2
f 2//3 3//3 1//3
f 7//4 2//4 1//4
f 5//5 6//5 1//5
f 3//6 4//6 1//6
f 6//7 8//7 7//7
f 4//8 8//8 5//8
f 2//9 8//9 3//9
f 7//10 8//10 2//10
f 5//11 8//11 6//11
f 3//12 8//12 4//12
