# Blender v2.77 (sub 0) OBJ File: 'Radiant_001.blend'
# www.blender.org
mtllib Radiant_001.mtl
o Radiant_001_Cube
v -0.500000 -0.500000 0.400000
v -0.500000 0.500000 0.400000
v 0.500000 -0.500000 0.400000
v 0.500000 0.500000 0.400000
v -0.500000 -0.500000 -0.400000
v -0.500000 0.500000 -0.400000
v 0.500000 -0.500000 -0.400000
v 0.500000 0.500000 -0.400000
v -1.000000 -0.500000 0.000000
v -0.500000 -1.000000 0.000000
v -1.000000 0.500000 0.000000
v -0.500000 1.000000 0.000000
v 1.000000 -0.500000 0.000000
v 0.500000 -1.000000 0.000000
v 0.500000 1.000000 0.000000
v 1.000000 0.500000 0.000000
vn 0.0000 0.0000 1.0000
vn -0.5298 -0.5298 0.6623
vn -0.5298 0.5298 0.6623
vn 0.5298 -0.5298 0.6623
vn 0.5298 0.5298 0.6623
vn -0.6247 0.0000 0.7809
vn 0.6247 0.0000 0.7809
vn 0.0000 0.6247 0.7809
vn 0.0000 -0.6247 0.7809
vn 0.0000 0.0000 -1.0000
vn -0.5298 -0.5298 -0.6623
vn -0.5298 0.5298 -0.6623
vn 0.5298 -0.5298 -0.6623
vn 0.5298 0.5298 -0.6623
vn -0.6247 0.0000 -0.7809
vn 0.6247 0.0000 -0.7809
vn 0.0000 0.6247 -0.7809
vn 0.0000 -0.6247 -0.7809
usemtl Radiant001Mat
s off
f 4//1 2//1 1//1 3//1
f 1//2 9//2 10//2
f 11//3 2//3 12//3
f 13//4 3//4 14//4
f 15//5 4//5 16//5
f 1//6 2//6 11//6 9//6
f 4//7 3//7 13//7 16//7
f 15//8 12//8 2//8 4//8
f 10//9 14//9 3//9 1//9
f 8//10 7//10 5//10 6//10
f 5//11 10//11 9//11
f 11//12 12//12 6//12
f 13//13 14//13 7//13
f 15//14 16//14 8//14
f 5//15 9//15 11//15 6//15
f 8//16 16//16 13//16 7//16
f 15//17 8//17 6//17 12//17
f 10//18 5//18 7//18 14//18
